<svg width="32" height="32" viewBox="0 0 32 32" xmlns="http://www.w3.org/2000/svg">
  <defs>
    <linearGradient id="faviconGradient" x1="0%" y1="0%" x2="100%" y2="100%">
      <stop offset="0%" stop-color="#7C3AED" />
      <stop offset="100%" stop-color="#EC4899" />
    </linearGradient>
  </defs>
  
  <!-- Background circle -->
  <circle cx="16" cy="16" r="15" fill="url(#faviconGradient)" opacity="0.1" />
  
  <!-- Microphone icon -->
  <path 
    d="M16 6 C18.5 6 20.5 8 20.5 10.5 L20.5 15.5 C20.5 18 18.5 20 16 20 C13.5 20 11.5 18 11.5 15.5 L11.5 10.5 C11.5 8 13.5 6 16 6 Z M16 22 C20.5 22 24 18.5 24 14 M8 14 C8 18.5 11.5 22 16 22 M16 24 L16 28 M13 28 L19 28" 
    stroke="url(#faviconGradient)" 
    stroke-width="2" 
    fill="none" 
    stroke-linecap="round"
  />
</svg>