<svg version="1.1" xmlns="http://www.w3.org/2000/svg" style="display: block;" viewBox="0 0 2048 1152" width="1820" height="1024">
<path transform="translate(0,0)" fill="rgb(251,249,237)" d="M 0 0 L 2046.25 0 C 2047.42 1.85854 2047.77 3.31159 2047.89 5.47856 C 2048.53 17.7544 2048.01 30.3085 2048.01 42.6184 L 2048.02 113.786 L 2048.03 331.839 L 2048.01 431.118 C 2048.01 440.302 2049.59 460.49 2047.57 468.177 C 2047.31 469.178 2046.81 470.109 2046.26 470.98 C 2047.42 472.848 2047.77 474.304 2047.89 476.477 C 2048.88 495.413 2048.01 514.844 2048.02 533.82 L 2048.03 647.525 L 2048.04 995.386 L 2048.03 1099.87 C 2048.02 1116.5 2049.37 1134.47 2047.74 1150.98 L 2047.74 1152 L 3.87231 1152 L 0 1152 L 0 458.142 L 0 0 z"/>
<path transform="translate(0,0)" fill="rgb(103,56,75)" d="M 1156.81 966.881 L 1157.59 962.83 C 1161.7 961.279 1217.99 964.445 1221.43 965.871 C 1221.95 966.088 1222.42 966.44 1222.89 966.75 L 1223.1 968.914 C 1219.03 972.101 1166.38 967.07 1156.81 966.881 z"/>
<path transform="translate(0,0)" fill="rgb(103,56,75)" d="M 1159.72 994.992 L 1161.28 991.82 C 1169.47 989.193 1228.57 991.742 1236.94 994.782 C 1238.15 995.681 1239 996.834 1239.94 998 L 1239.07 999.532 A 2853.99 2853.99 0 0 0 1188.54 996.303 C 1179.39 995.886 1168.56 997.121 1159.72 994.992 z"/>
<path transform="translate(0,0)" fill="rgb(103,56,75)" d="M 1093.48 538.571 C 1097.62 541.685 1099.33 557.111 1103.69 562.809 C 1111.21 572.621 1126.8 575.027 1138.33 576.416 C 1133.34 577.868 1128.57 579.725 1123.74 581.636 A 645.263 645.263 0 0 1 1092.68 594.695 C 1089.33 576.013 1083.55 556.165 1093.48 538.571 z"/>
<path transform="translate(0,0)" fill="rgb(213,194,192)" d="M 1156.81 966.881 C 1166.38 967.07 1219.03 972.101 1223.1 968.914 C 1228.89 972.522 1235.68 985.76 1237.12 992.489 C 1237.31 993.352 1237.13 993.943 1236.94 994.782 C 1228.57 991.742 1169.47 989.193 1161.28 991.82 L 1159.72 994.992 C 1160.49 986.006 1159.07 975.607 1156.81 966.881 z"/>
<path transform="translate(0,0)" fill="rgb(103,56,75)" d="M 1277.13 969.491 C 1284.29 969.522 1292.34 975.467 1297.46 980.072 C 1300.56 982.862 1305.38 987.209 1305.57 991.647 C 1305.9 993.611 1305.68 995.247 1305.16 997.145 C 1304.25 1000.5 1303.25 1004.32 1300.1 1006.08 L 1297.77 1004.81 L 1296.63 1005.15 C 1293.97 1013.75 1296.29 1023.06 1294.38 1031.79 C 1292.12 1042.14 1282.93 1054.93 1273.96 1060.51 C 1272.77 1062.89 1272.5 1063.42 1270.29 1064.86 C 1266.31 1064.29 1262.75 1059.75 1259.96 1057.01 C 1260.57 1056.47 1261.02 1056.06 1261.45 1055.37 C 1267.57 1045.48 1267.76 1031.04 1264.49 1020.21 C 1262.6 1013.97 1260.72 1009.72 1254.83 1006.57 C 1263.36 998.919 1275.44 981.096 1277.13 969.491 z"/>
<path transform="translate(0,0)" fill="rgb(103,56,75)" d="M 1150.45 1035.04 C 1150.51 1035.1 1150.57 1035.16 1150.63 1035.22 C 1155.6 1040.86 1156.69 1053 1156.38 1060.29 C 1156.2 1064.61 1155.11 1068.87 1151.65 1071.78 C 1141.95 1079.94 1130.38 1071.34 1120.79 1070.9 C 1113.89 1070.59 1103.99 1074.31 1096.86 1075.38 C 1086.35 1076.97 1075.28 1075.78 1064.77 1074.82 C 1060.43 1074.15 1056.13 1073.14 1051.84 1072.23 C 1065.1 1051.38 1077.87 1059.17 1096.95 1050.56 C 1104.31 1047.24 1109.55 1042.12 1115.27 1036.62 C 1128.45 1040.85 1137.68 1039.92 1150.45 1035.04 z"/>
<path transform="translate(0,0)" fill="rgb(213,194,192)" d="M 1035.33 766.88 C 1037.09 767.252 1038.9 767.784 1040.58 768.4 C 1043.35 769.413 1044.42 770.498 1045.57 773.079 C 1044.18 778.698 1021.43 793.028 1015.01 798.262 A 253.955 253.955 0 0 0 930.498 925.178 C 927.861 934.16 924.735 943.582 923.82 952.904 L 923.775 953.392 C 922.646 953.56 921.659 953.75 920.585 954.147 L 919.637 954.505 C 915.891 953.716 913.634 956.843 910.059 955.488 C 908.729 952.329 909.54 948.599 910.238 945.365 C 927.177 866.915 968.503 810.251 1035.33 766.88 z"/>
<path transform="translate(0,0)" fill="rgb(103,56,75)" d="M 1167.02 567.111 C 1168.76 568.708 1189.78 600.462 1189.81 601.077 C 1190.79 601.483 1192.66 602.63 1193.61 602.236 C 1199.52 599.79 1225.27 578.825 1227.56 573.164 C 1227.67 572.886 1227.76 572.601 1227.87 572.319 C 1232.39 585.597 1218.13 664.453 1211.81 678.417 C 1211.2 679.765 1210.33 680.949 1209.33 682.03 C 1209.38 677.032 1203.98 667.19 1200.49 663.677 C 1199.73 662.914 1198.93 662.388 1197.96 661.934 C 1198.02 661.304 1198.28 660.114 1198.16 659.538 C 1196.94 653.826 1152.63 589.94 1146.44 580.512 C 1152.37 577.223 1164.22 573.703 1167.02 567.111 z"/>
<path transform="translate(0,0)" fill="rgb(213,194,192)" d="M 1030.26 650.789 C 1032.64 650.862 1034.68 651.562 1036.36 653.37 C 1038.24 655.407 1038.19 656.981 1038.22 659.545 C 1037.31 661.921 1035.97 663.228 1033.87 664.542 C 1025.67 669.664 1016.17 673.283 1007.56 677.694 C 990.844 686.252 973.119 696.908 958.209 708.34 A 364.252 364.252 0 0 0 817.357 950.278 C 815.289 952.31 814.868 952.17 811.94 952.513 C 809.541 952.455 807.397 953.022 804.955 952.671 C 804.539 952.092 804.408 951.97 804.121 951.388 C 800.455 943.967 819.467 876.086 823.292 865.753 C 860.616 764.944 933.771 695.098 1030.26 650.789 z"/>
<path transform="translate(0,0)" fill="rgb(213,194,192)" d="M 744.238 763.774 C 765.758 729.704 787.56 696.961 814.973 667.258 C 868.398 609.369 943.344 563.065 1017.99 538.532 C 1025.6 536.03 1033.53 532.842 1041.28 530.966 C 1043.21 530.498 1045.22 530.784 1046.89 531.884 C 1048.25 532.783 1049.48 534.44 1049.82 536.058 C 1050.3 538.386 1049.73 540.751 1048.09 542.494 C 1041.76 549.219 1003.25 559.827 992.209 564.434 C 952.606 580.964 914.293 601.472 880.84 628.514 C 839.815 661.675 803.918 699.32 774.133 742.951 C 766.903 753.542 750.777 787.649 743.236 794.262 C 745.525 775.903 742.486 751.808 743.178 732.443 C 745.279 742.237 744.111 753.697 744.238 763.774 z"/>
<path transform="translate(0,0)" fill="rgb(103,56,75)" d="M 1182.27 641.563 C 1188.52 645.727 1193.62 655.7 1197.96 661.934 C 1205.58 670.729 1196.61 771.409 1202.71 785.104 C 1204.62 785.418 1206.04 785.75 1207.75 786.669 C 1208.39 790.531 1205.25 791.947 1205.76 795.39 C 1207.93 795.682 1209.43 795.788 1211.14 797.227 C 1218.37 813.418 1280.76 954.111 1279.89 962.749 C 1279.92 963.234 1279.97 963.393 1279.8 963.92 C 1277.64 970.516 1262.61 994.501 1256.52 997.311 C 1253.85 996.117 1253.12 991.293 1251.19 990.643 C 1249.94 990.225 1247.91 990.97 1246.7 990.597 C 1244.48 989.909 1237.72 972.469 1234.28 969.422 C 1234.11 969.276 1233.94 969.141 1233.77 969 C 1234.16 963.64 1214.82 928.749 1210.56 920.575 A 6772.47 6772.47 0 0 0 1171.9 848.701 C 1165.03 836.076 1157.23 823.368 1151.51 810.186 C 1145.16 795.54 1142.96 778.99 1136.86 763.947 C 1142.85 744.964 1185.27 654.574 1182.27 641.563 z"/>
<path transform="translate(0,0)" fill="rgb(213,194,192)" d="M 1256.93 303.431 C 1395.85 322.559 1519.99 366.845 1635.75 446.919 C 1635.28 450.794 1577.87 527.85 1572.78 531.719 C 1572.18 532.17 1571.57 532.569 1570.92 532.937 L 1570.34 530.909 C 1494.22 478.689 1403.54 445.386 1312.25 432.908 C 1295.15 430.571 1277.65 429.588 1260.43 428.456 C 1260.42 428.053 1260.39 427.649 1260.35 427.247 C 1258.96 413.354 1242.58 377.252 1231.68 368.258 C 1237.96 367.72 1244.22 367.302 1249.83 364.165 C 1252.66 362.583 1253.98 361.361 1254.88 358.284 L 1253.5 355.886 C 1249.74 352.994 1244.38 352.479 1239.82 351.557 C 1242.01 350.529 1244.1 349.315 1246.18 348.08 C 1249.94 345.85 1252.19 344.511 1253.28 340.182 L 1251.89 337.914 C 1248.44 335.271 1243 335.085 1238.78 334.449 C 1242.34 332.451 1244.55 329.752 1247.01 326.564 C 1251.83 320.33 1258.03 311.671 1256.93 303.431 z"/>
<path transform="translate(0,0)" fill="rgb(103,56,75)" d="M 1902.27 49.5834 C 1909.47 38.5576 1916.73 31.2553 1930.2 28.3727 C 1944.93 25.2194 1961 29.1015 1973.47 37.2953 C 1985.39 45.1293 1994.49 56.8826 1997.19 71.0692 C 1998.88 79.9431 1997.86 89.239 1993.43 97.1832 C 1998.48 98.4212 2004.76 99.6979 2007.69 104.537 C 2010.52 109.204 2009.5 113.014 2008.02 117.87 C 1999.47 145.828 1988.71 173.603 1978.91 201.171 C 1972.28 219.843 1965.97 244.471 1955.72 261.249 C 1953.14 265.468 1949.23 268.093 1944.94 270.396 C 1933.8 276.375 1918.99 279.744 1906.41 280.267 C 1906.64 284.092 1869.46 397.306 1866.68 400.908 C 1866.82 404.457 1865.71 407.2 1863.34 409.839 C 1863.67 411.734 1863.46 413.053 1862.95 414.871 C 1860.01 425.359 1830.33 519.167 1826.48 524.3 C 1826.27 524.575 1826.05 524.84 1825.84 525.11 C 1825.87 529.292 1787.08 642.515 1782.79 654.554 C 1778.97 665.276 1774.36 675.69 1770.61 686.443 L 1661.04 1002.77 C 1659.7 1006.53 1658.41 1011.65 1655.6 1014.51 C 1689.21 1021.73 1723.01 1028.73 1756.32 1037.21 A 2442.51 2442.51 0 0 1 1931.82 1089.56 C 1938.35 1091.71 1963.53 1098.11 1966.37 1102.35 L 1965.45 1104.8 C 1962.83 1105.67 1960.62 1104.84 1958.12 1104.07 C 1939.27 1098.28 1920.69 1091.41 1901.89 1085.38 A 2189.33 2189.33 0 0 0 1767.83 1046.07 C 1615.88 1006.64 1457.38 986.857 1300.97 975.981 C 1300.03 973.567 1297.85 972.179 1295.91 970.579 A 3201.51 3201.51 0 0 1 1548.23 996.833 C 1582.13 1001.74 1615.8 1008.02 1649.58 1013.71 C 1655.66 1005.17 1661.59 982.701 1665.42 971.76 L 1697.09 880.717 L 1819.23 528.523 A 15567.7 15567.7 0 0 0 1869.32 375.464 C 1874.53 359.755 1906.96 270.702 1906.66 263.146 C 1910.68 258.363 1914.67 243.271 1915.42 236.898 A 583.28 583.28 0 0 1 1906.7 239.9 C 1906.56 240.079 1906.44 240.277 1906.28 240.438 C 1902.81 243.915 1893.41 245.548 1888.66 245.617 C 1867.53 245.923 1850.44 233.799 1835.9 219.949 C 1832.77 214.676 1828.95 207.646 1824.56 203.44 C 1821.3 216.788 1288.89 917.953 1278.23 924.397 C 1277.57 924.797 1277.47 924.769 1276.82 924.896 C 1275.05 922.928 1275.41 922.681 1275.52 920.144 C 1283.55 908.472 1293.42 897.569 1302.23 886.431 L 1350.14 824.927 C 1372.17 796.585 1570.06 537.537 1570.92 532.937 C 1571.57 532.569 1572.18 532.17 1572.78 531.719 C 1577.87 527.85 1635.28 450.794 1635.75 446.919 C 1636.36 446.565 1636.6 446.445 1637.13 446.066 C 1639.46 444.403 1640.47 442.795 1640.93 440.001 C 1641.78 439.654 1642.42 439.266 1643.09 438.628 C 1654.1 428.086 1669.88 403.33 1679.97 389.718 C 1690.77 375.127 1703.1 360.876 1712.9 345.651 C 1713.72 344.381 1713.82 343.727 1713.86 342.254 C 1714.09 342.134 1714.33 342.019 1714.57 341.894 C 1717.34 340.422 1718.05 338.733 1718.94 335.934 C 1724.44 332.289 1777.83 260.454 1778.92 255.106 C 1779.64 254.724 1779.64 254.754 1780.41 254.168 C 1782.36 252.672 1783.41 251.297 1783.81 248.873 C 1784.36 248.556 1784.36 248.567 1784.96 248.152 C 1789.3 245.139 1818.33 206.507 1819.24 201.081 C 1807.74 192.496 1803.31 193.235 1797.62 177.705 C 1785.71 145.186 1816.44 130.768 1827.45 106.34 C 1827.53 106.155 1827.61 105.967 1827.69 105.78 C 1843.07 92.8686 1856.93 61.1832 1873.81 48.9909 C 1882.22 45.4162 1888.75 43.6972 1897.49 47.2114 C 1899.15 47.8759 1900.72 48.7131 1902.27 49.5834 z"/>
<path transform="translate(0,0)" fill="rgb(213,194,192)" d="M 1930.88 32.4994 C 1937.05 31.677 1943.53 31.621 1949.65 32.8072 C 1964.1 35.6107 1977.77 44.3287 1985.84 56.7272 C 1991.53 65.4556 1995.08 77.1255 1992.66 87.5085 C 1990.96 94.8171 1986.16 102.083 1979.76 106.003 C 1980.34 104.58 1980.43 103.457 1980.41 101.909 C 1980.35 98.1035 1978.99 94.6297 1976.23 91.9924 C 1976.29 91.5728 1976.39 91.1666 1976.35 90.7396 C 1975.83 84.0183 1965.6 75.2823 1960.6 71.5693 C 1939.59 55.993 1926.08 55.9504 1900.73 59.7605 C 1903.6 57.265 1905.28 54.2562 1907.39 51.1529 C 1914.32 40.9493 1919.52 36.7234 1930.88 32.4994 z"/>
<path transform="translate(0,0)" fill="rgb(213,194,192)" d="M 1822.3 161.836 C 1832.16 149.657 1843.72 141.963 1859.63 140.27 C 1881.18 137.979 1902.4 145.822 1918.91 159.431 C 1931.34 169.678 1944.81 186.696 1945.99 203.182 C 1946.08 204.446 1945.96 205.649 1945.72 206.886 C 1948.25 214.098 1945.61 225.052 1942.4 231.78 C 1939.4 238.077 1934.49 243.717 1927.74 246.036 C 1924.29 247.222 1921.23 247.139 1917.73 246.066 C 1923.09 240.375 1919.06 238.762 1919.98 233.084 C 1920.4 230.528 1924.13 225.486 1925.27 222.645 C 1929.4 212.259 1929.13 201.915 1924.58 191.696 C 1917.59 176.001 1902.57 164.312 1886.75 158.355 C 1869.52 151.867 1853.48 152.478 1836.89 160.003 C 1833.98 162.58 1829.93 167.914 1826.41 168.864 C 1823.92 167.255 1823.29 164.496 1822.3 161.836 z"/>
<path transform="translate(0,0)" fill="rgb(213,194,192)" d="M 1953.75 205.057 C 1953.9 204.932 1954.06 204.815 1954.21 204.682 C 1957.89 201.368 1959.25 193.424 1960.65 188.737 C 1964.99 174.182 1977.14 121.322 1982.65 111.482 C 1985.19 106.947 1989.3 102.017 1994.99 102.188 C 1997.82 102.272 2000.26 103.702 2002.12 105.779 C 2003.14 106.92 2004.64 109.104 2004.55 110.733 C 2004.39 113.827 1961.59 234.875 1956.1 247.938 C 1954.07 252.783 1951.77 259.191 1947.52 262.454 C 1936.84 270.655 1920.47 273.516 1907.43 275.526 C 1911.94 271.539 1916 258.508 1916.33 252.413 C 1916.34 252.13 1916.35 251.846 1916.36 251.562 C 1926.65 251.281 1933.73 249.451 1941.2 241.745 C 1947.26 235.5 1951.41 225.786 1951.49 217.025 C 1951.51 215.909 1951.29 215.14 1950.99 214.075 C 1951.48 213.587 1951.99 213.089 1952.42 212.548 C 1954.5 209.95 1954.2 208.088 1953.75 205.057 z"/>
<path transform="translate(0,0)" fill="rgb(213,194,192)" d="M 1881.11 50.844 C 1886.44 50.2039 1891.35 49.6344 1896.18 52.3973 C 1897.74 54.5614 1898.45 55.4246 1898.09 58.2528 C 1897.04 66.6544 1858.13 111.829 1849.15 121.901 C 1840.85 131.209 1822.22 147.485 1819.19 159.302 C 1817.34 166.561 1823.59 171.842 1823.38 178.988 C 1823.21 184.611 1824.39 190.675 1822.83 196.142 L 1821.54 197.154 C 1815.01 195.713 1810.29 190.421 1806.77 185.001 C 1801.18 176.369 1798.89 166.469 1801.14 156.334 C 1805.86 135.026 1827.57 122.797 1832.37 107.848 C 1835.8 105.41 1838.48 101.223 1841.09 97.9043 C 1852.19 83.8106 1865.61 59.1061 1881.11 50.844 z"/>
<path transform="translate(0,0)" fill="rgb(251,249,237)" d="M 1839.99 163.068 C 1857.93 157.04 1875.61 157.416 1892.77 166.104 C 1905.76 172.678 1917.83 184.304 1922.3 198.458 C 1924.72 206.121 1924.64 214.669 1920.86 221.888 C 1917.53 228.258 1912.39 232.906 1905.83 235.72 C 1902.92 237.383 1899.27 238.375 1896.04 239.204 C 1878.74 243.636 1863.17 235.99 1849.76 225.572 C 1846.28 222.864 1843.18 219.466 1839.34 217.287 C 1839.18 217.194 1839.01 217.107 1838.84 217.017 C 1838.67 212.89 1829.65 198.792 1828.22 192.036 C 1826.48 183.798 1828.37 176.242 1833.92 169.934 C 1835.68 167.935 1838.15 166.135 1839.52 163.868 C 1839.68 163.604 1839.83 163.335 1839.99 163.068 z"/>
<path transform="translate(0,0)" fill="rgb(251,249,237)" d="M 1901.56 65.3624 C 1918.83 59.6872 1930.5 60.3561 1946.89 68.4905 C 1959.35 74.6766 1970.85 85.0355 1975.27 98.5287 C 1976.22 101.433 1976.68 103.974 1975.99 106.999 C 1976.32 108.056 1976.63 109.257 1976.45 110.372 C 1974.58 121.687 1955.95 192.537 1951.48 200.348 C 1951.38 200.518 1951.26 200.674 1951.15 200.837 L 1950.38 201.066 A 85.4448 85.4448 0 0 0 1912.67 148.36 C 1890.05 134.084 1867.32 133.395 1841.86 139.071 C 1851.77 127.243 1898.46 74.5352 1901.56 65.3624 z"/>
<path transform="translate(0,0)" fill="rgb(213,194,192)" d="M 811.43 386.572 C 816.591 385.724 861.541 360.134 871.682 355.417 A 573.539 573.539 0 0 1 1072.02 303.744 C 1078.49 303.287 1104.37 299.985 1108.22 302.597 L 1107.95 303.642 C 1107.17 306.772 1106.57 308.989 1108.31 311.939 C 1110.27 315.233 1113.76 317.574 1117 319.478 C 1113.21 325.704 1107.08 333.281 1109.44 341.035 C 1110.6 344.862 1114.66 347.7 1118.14 349.305 C 1124.3 352.151 1131.07 354.465 1137.54 356.551 C 1107.81 373.038 1071.93 405.106 1057.95 436.555 C 970.052 458.417 886.166 492.837 813.981 548.554 C 788.907 567.908 765.597 589.737 742.848 611.747 C 743.616 583.003 742.959 554.071 742.994 525.308 C 743.009 513.226 742.241 500.546 743.323 488.529 C 744.533 487.653 745.639 487.066 747.018 486.488 L 747.496 486.291 C 750.065 473.35 748.948 457.456 748.738 444.15 C 748.678 440.334 749.333 438.153 746.491 435.401 C 755.163 427.871 801.282 398.282 803.553 392.474 L 811.43 386.572 z"/>
<path transform="translate(0,0)" fill="rgb(103,56,75)" d="M 1159.42 242.446 C 1178.12 239.521 1204.45 249.283 1221.13 257.955 C 1232.91 264.079 1243.15 273.993 1247.03 286.978 C 1254.72 312.655 1237.12 316.17 1228.28 332.668 C 1229.12 338.76 1237.03 338.731 1240.69 342.85 C 1237.18 346.749 1228.18 347.061 1223.08 347.93 C 1227.06 349.936 1240.56 356.144 1242.45 359.331 C 1234.01 360.553 1226.01 359.779 1217.65 358.602 C 1214.36 347.181 1200.38 348.158 1192.44 342.307 C 1190.5 340.878 1188.99 338.802 1188.8 336.34 C 1188.07 326.84 1192.95 328.609 1196.66 323.93 C 1196.86 323.679 1197.04 323.415 1197.23 323.157 C 1199.99 320.633 1202.94 316.068 1203.5 312.312 C 1205.6 298.126 1184.83 299.251 1179.9 291.031 C 1178.1 288.035 1179.02 284.513 1180.05 281.445 L 1180.36 280.534 C 1178.68 282.547 1176.13 285.764 1176.02 288.5 C 1175.69 296.657 1187.91 296.196 1192.54 298.548 C 1194.62 299.6 1196.66 301.601 1198.27 303.281 C 1200.58 305.68 1201.28 307.405 1201.19 310.652 L 1200.03 311.49 A 171.925 171.925 0 0 0 1197.54 309.275 C 1194.57 306.684 1192.62 304.929 1188.57 305.204 C 1184.74 307.772 1185.45 313.103 1183.33 316.779 C 1181.52 319.896 1178.36 321.91 1177.41 325.509 C 1177.18 326.358 1177.95 327.156 1178.37 327.895 C 1181.63 328.604 1184.92 329.159 1188.22 329.714 L 1188.63 332.097 C 1187.37 333.305 1186.52 334.156 1186.16 335.922 C 1184.17 345.798 1203.87 348.771 1209.8 352.03 C 1213.67 354.161 1216.8 357.228 1219.3 360.85 C 1227.56 372.849 1234.56 387.324 1240.51 400.605 C 1248 417.322 1279.37 499.467 1277.01 510.837 C 1272.91 530.611 1211.92 588.736 1192.61 601.006 C 1192.26 598.542 1187.19 593.808 1185.53 591.475 C 1180.24 584.044 1175.64 571.838 1168.6 566.551 C 1174.84 563.257 1225.61 509.36 1227.97 503.091 C 1228.02 502.86 1228.11 502.634 1228.14 502.398 C 1229.77 490.148 1201.53 443.355 1192.27 432.418 C 1186.53 425.634 1178.09 420.316 1172.87 413.45 C 1167.6 406.514 1169.46 396.548 1170.29 388.531 C 1167.53 392.103 1166.11 396.922 1166.23 401.42 C 1166.52 413.351 1177.46 421.033 1185.31 428.519 C 1192.56 435.435 1214.85 465.43 1214.77 475.217 C 1214.76 475.392 1214.75 475.567 1214.74 475.743 C 1215.09 480.992 1207.87 491.07 1206.04 496.684 C 1202.68 507.005 1207.13 518.309 1202.09 528.212 C 1202.08 528.294 1202.07 528.377 1202.05 528.457 C 1200.61 533.617 1178.56 554.931 1173.15 558.235 C 1169.9 551.862 1153.83 544.17 1147.31 540.796 C 1148.67 546.027 1167.66 553.988 1171.86 558.994 C 1172.08 559.265 1172.3 559.547 1172.52 559.824 C 1172 561.13 1171.36 562.326 1170.42 563.387 C 1164.17 570.437 1156.77 573.442 1147.47 573.96 C 1135.5 574.628 1117.71 572.398 1108.67 563.97 C 1095.52 551.721 1095.6 525.424 1095.17 508.737 C 1093.64 449.122 1105.7 412.878 1146.98 369.384 L 1146.43 369.277 L 1147.62 368.624 L 1147.53 368.12 C 1133.31 376.318 1121.1 395.828 1112.75 409.487 C 1089.42 447.398 1091.77 491.343 1094.3 533.953 A 67.391 67.391 0 0 0 1093.18 535.448 C 1079.87 553.709 1087.08 577.249 1090.35 597.739 C 1107.33 591.725 1124.55 580.952 1142.74 579.891 C 1149.55 588.351 1181.22 631.407 1181.96 639.579 C 1181.38 648.772 1174.26 664.426 1170.83 673.403 A 2664.83 2664.83 0 0 1 1130.34 773.236 C 1128.65 777.06 1123.72 785.302 1123.57 789.034 C 1123.55 789.614 1123.91 790.143 1124.08 790.697 C 1125.91 790.827 1127.27 790.983 1128.94 791.74 C 1128.88 793.838 1127.89 794.909 1126.66 796.539 L 1124.9 796.509 L 1125.36 797.826 L 1124.6 798.321 A 45.2114 45.2114 0 0 1 1126.48 803.714 C 1133.96 829.97 1135.9 859.556 1138.92 886.653 L 1148.51 968.216 A 2116.32 2116.32 0 0 0 1153.23 1007.7 C 1154.06 1014.26 1155.63 1021.41 1155.68 1027.97 C 1155.68 1029.05 1155.18 1030.12 1154.67 1031.04 C 1153.72 1031.99 1154.14 1031.69 1152.99 1032.38 C 1145.11 1037.14 1134.36 1038.52 1125.45 1036.34 C 1121.11 1035.28 1116.5 1033.02 1114.24 1028.98 C 1110.16 1021.69 1106.55 997.598 1104.25 987.779 C 1090.81 930.311 1075.87 872.208 1066.98 813.797 A 135.887 135.887 0 0 1 1065.62 787.223 C 1067.44 742.795 1078.15 697.319 1086.54 653.671 C 1089.49 638.291 1093.41 622.745 1094.99 607.141 C 1095.28 604.234 1094.98 600.994 1093.42 598.467 C 1092.53 610.267 1089.93 621.859 1087.96 633.516 C 1076.7 636.966 1065.23 639.804 1053.85 642.846 C 1055.16 616.524 1061.82 584.178 1067 558.139 C 1070.26 541.772 1073.88 525.531 1074.9 508.83 C 1076.2 487.482 1063.39 472.113 1065.76 452.551 C 1069.22 423.935 1100.95 395.248 1122.32 378.663 C 1131.2 371.773 1140.72 365.869 1149.59 359.001 C 1150.03 356.019 1149.99 352.783 1150.17 349.762 C 1145.14 342.209 1128 346.166 1120.1 339.007 C 1121.61 331.05 1125.84 320.37 1124.74 312.352 C 1124.4 309.843 1118.73 308.303 1116.59 306.835 L 1116.46 305.052 C 1120.27 298.983 1129.34 296.194 1134.11 290.833 C 1137.74 286.753 1138.43 280.114 1141.49 275.548 C 1144.38 271.229 1149.5 268.22 1152.89 264.22 C 1153.03 264.059 1153.16 263.894 1153.3 263.732 C 1151.66 261.037 1144.27 256.373 1141.25 252.483 C 1146.8 247.598 1152.63 245.151 1159.42 242.446 z"/>
<path transform="translate(0,0)" fill="rgb(251,249,237)" d="M 1825.84 525.11 C 1836.04 523.398 1865.75 508.556 1878.29 503.933 C 1927.7 485.712 1993.31 470.504 2046.26 470.98 C 2047.42 472.848 2047.77 474.304 2047.89 476.477 C 2048.88 495.413 2048.01 514.844 2048.02 533.82 L 2048.03 647.525 L 2048.04 995.386 L 2048.03 1099.87 C 2048.02 1116.5 2049.37 1134.47 2047.74 1150.98 C 2042.66 1147.33 2036.5 1144.26 2031.15 1140.94 C 2010.04 1127.85 1988.16 1114.91 1965.45 1104.8 L 1966.37 1102.35 C 1963.53 1098.11 1938.35 1091.71 1931.82 1089.56 A 2442.51 2442.51 0 0 0 1756.32 1037.21 C 1723.01 1028.73 1689.21 1021.73 1655.6 1014.51 C 1658.41 1011.65 1659.7 1006.53 1661.04 1002.77 L 1770.61 686.443 C 1774.36 675.69 1778.97 665.276 1782.79 654.554 C 1787.08 642.515 1825.87 529.292 1825.84 525.11 z"/>
<path transform="translate(0,0)" fill="rgb(103,56,75)" d="M 75.7148 41.2253 C 86.2369 32.4447 101.198 29.2435 114.631 30.3442 C 124.6 31.161 132.789 33.9997 139.33 41.7512 C 143.624 46.8408 147.205 52.5355 151.206 57.8549 C 156.363 52.9471 161.63 49.5746 169.004 49.684 C 174.857 49.7708 179.982 51.8741 183.943 56.1697 C 197.932 71.3417 215.683 99.159 228.368 116.653 C 236.841 128.339 248.442 140.788 254.877 153.482 C 257.478 158.614 258.989 165.281 258.638 171.034 C 257.787 184.955 247.719 197.972 237.525 206.705 L 237.052 207.109 L 361.202 378.589 A 8717.04 8717.04 0 0 1 422.336 462.884 C 433.742 478.611 445.921 493.995 456.512 510.278 C 458.222 512.523 458.745 513.755 461.512 514.629 C 465.445 514.008 469.002 509.978 471.926 507.394 C 479.707 504.08 526.059 466.843 537.078 458.628 C 536.475 449.885 537.053 441.247 543.121 434.351 C 547.948 428.864 556.327 425.094 563.577 424.647 A 21.6846 21.6846 0 0 1 579.635 430.192 A 23.6419 23.6419 0 0 1 587.389 446.267 A 24.5803 24.5803 0 0 1 580.681 464.294 C 575.022 470.378 566.657 473.259 558.472 473.373 C 555.023 473.42 551.682 472.873 548.307 472.219 C 535.661 480.268 523.763 489.638 511.741 498.59 C 511.718 502.724 511.164 507.419 513.411 511.024 C 517.984 518.362 519.847 547.779 518.096 556.523 C 517.919 557.409 517.544 557.885 517.035 558.609 L 513.237 559.569 C 509.503 566.328 512.086 583.43 511.948 591.511 A 2722.42 2722.42 0 0 1 561.464 658.534 C 563.37 661.234 565.207 664.015 567.372 666.515 C 576.052 657.302 591.572 625.872 599.915 613.074 C 635.737 558.127 675.532 505.736 726.426 463.786 C 727.496 459.311 727.144 453.483 727.416 448.82 C 726.897 440.246 731.684 434.302 731.085 423.607 C 724.246 430.449 695.404 453.574 687.91 456.961 C 686.052 457.801 683.688 458.001 681.672 458.242 C 671.762 459.427 649.802 484.263 640.67 485.017 L 638.961 483.416 L 638.94 480.922 C 643.614 472.007 657.033 465.879 664.864 459.593 C 671.27 454.452 675.895 447.384 682.264 442.218 C 692.067 434.269 703.002 427.375 713.237 419.954 C 731.506 406.708 749.56 393.126 768.245 380.469 C 767.579 378.095 766.85 375.614 766.613 373.155 A 25.2439 25.2439 0 0 1 772.472 354.663 A 27.1758 27.1758 0 0 1 790.999 345.313 A 24.066 24.066 0 0 1 808.805 351.022 C 815.616 356.967 816.969 363.615 817.551 372.276 C 816.036 377.496 814.288 381.944 811.43 386.572 L 803.553 392.474 C 801.282 398.282 755.163 427.871 746.491 435.401 C 749.333 438.153 748.678 440.334 748.738 444.15 C 748.948 457.456 750.065 473.35 747.496 486.291 L 747.018 486.488 C 745.639 487.066 744.533 487.653 743.323 488.529 C 742.241 500.546 743.009 513.226 742.994 525.308 C 742.959 554.071 743.616 583.003 742.848 611.747 A 3742.54 3742.54 0 0 0 742.882 685.64 C 742.954 701.171 742.517 716.937 743.178 732.443 C 742.486 751.808 745.525 775.903 743.236 794.262 A 10885.7 10885.7 0 0 0 743.105 906.427 C 749.115 914.385 775.763 946.685 776.951 954.738 L 776.224 956.991 C 775.4 957.15 774.629 957.576 773.902 957.089 C 768.406 953.408 749.08 925.082 742.991 917.35 L 743.275 969.165 C 776.974 965.149 811.841 964.504 845.748 963.175 A 3026.31 3026.31 0 0 1 1049.91 960.582 C 1057.63 960.701 1086.77 959.366 1092.25 962.837 C 1095.05 973.042 1095.13 989.855 1099.92 998.445 L 1099.7 1001.48 C 1095.31 1005.06 1044.85 1008.96 1036.19 1010.14 C 1011.03 1013.58 904.137 1030.24 901.487 1061.41 C 901.092 1066.06 904.284 1070.71 907.325 1073.91 C 945.205 1113.79 1096.17 1122.44 1150.78 1123.21 C 1210.4 1124.05 1381.72 1117.58 1424.31 1075.71 C 1428.33 1071.76 1431.56 1066.66 1431.52 1060.84 C 1431.49 1055.51 1428.51 1050.91 1424.75 1047.34 C 1405.44 1029 1365.35 1020.69 1339.83 1015.69 C 1332.91 1014.33 1325.22 1013.96 1318.53 1012.06 C 1316.45 1011.47 1316.49 1011.49 1315.35 1009.58 L 1315.61 1006.85 A 31.6555 31.6555 0 0 0 1316.31 1005.67 C 1317.86 1002.92 1319.02 1000.36 1318.15 997.218 C 1316.13 990.596 1306.34 980.476 1300.97 975.981 C 1457.38 986.857 1615.88 1006.64 1767.83 1046.07 A 2189.33 2189.33 0 0 1 1901.89 1085.38 C 1920.69 1091.41 1939.27 1098.28 1958.12 1104.07 C 1960.62 1104.84 1962.83 1105.67 1965.45 1104.8 C 1988.16 1114.91 2010.04 1127.85 2031.15 1140.94 C 2036.5 1144.26 2042.66 1147.33 2047.74 1150.98 L 2047.74 1152 L 3.87231 1152 L 0 1152 L 0 458.142 C 76.1068 456.909 151.813 477.988 221.756 506.167 C 210.331 471.553 197.875 437.266 186.043 402.784 L 145.129 282.481 C 134.888 280.928 123.488 278.8 113.792 275.027 C 102.627 270.682 97.7462 265.216 92.9884 254.516 C 83.2375 232.585 76.0789 209.111 67.8042 186.594 C 59.3826 163.678 49.1064 140.487 42.9901 116.849 C 42.3458 114.358 41.2688 110.845 42.4322 108.377 C 45.1799 102.551 53.279 100.51 58.8935 98.6003 C 54.8949 90.265 54.0123 80.9467 55.5858 71.8629 C 57.8137 59.0005 65.118 48.6362 75.7148 41.2253 z"/>
<path transform="translate(0,0)" fill="rgb(213,194,192)" d="M 748.5 421.845 L 748.201 416.968 C 751.666 409.417 770.261 397.962 777.633 394.295 C 780.776 392.732 782.324 393.708 785.372 394.755 C 774.166 401.676 757.496 412.433 748.5 421.845 z"/>
<path transform="translate(0,0)" fill="rgb(251,249,237)" d="M 785.372 394.755 C 792.323 395.428 796.97 395 803.553 392.474 C 801.282 398.282 755.163 427.871 746.491 435.401 C 745.208 429.686 745.78 427.024 748.5 421.845 C 757.496 412.433 774.166 401.676 785.372 394.755 z"/>
<path transform="translate(0,0)" fill="rgb(251,249,237)" d="M 714.318 866.327 C 717.171 859.731 728.314 825.527 732.895 823.21 L 733.032 891.56 C 726.866 883.106 720.816 874.529 714.318 866.327 z"/>
<path transform="translate(0,0)" fill="rgb(213,194,192)" d="M 703.679 851.866 C 709.245 841.377 712.95 828.862 717.804 817.888 C 721.91 808.605 727.64 799.614 731.174 790.189 C 731.988 788.019 732.457 785.703 732.859 783.427 C 732.93 796.614 733.511 810.046 732.895 823.21 C 728.314 825.527 717.171 859.731 714.318 866.327 L 703.679 851.866 z"/>
<path transform="translate(0,0)" fill="rgb(213,194,192)" d="M 499.613 505.003 C 502.612 514.91 490.219 542.674 499.805 559.97 C 502.257 564.396 501.407 568.405 500.874 573.211 C 497.103 568.444 493.744 563.188 490.262 558.197 L 467.734 526.908 C 478.973 520.468 489.25 512.731 499.613 505.003 z"/>
<path transform="translate(0,0)" fill="rgb(213,194,192)" d="M 74.3914 47.7871 C 86.7718 39.1299 101.396 32.3642 116.913 35.0373 C 132.969 37.8033 141.374 52.9515 150.164 65.0883 C 133.571 59.7049 118.431 59.3915 102.506 67.4717 C 89.9937 73.8206 79.7496 84.038 75.3677 97.5735 C 73.8384 102.297 73.1108 107.127 72.6414 112.054 C 69.2449 106.916 65.8539 101.798 62.7253 96.4909 C 61.6595 92.1931 60.5528 87.7664 60.1932 83.344 C 59.0141 68.8415 65.3814 58.3917 74.3914 47.7871 z"/>
<path transform="translate(0,0)" fill="rgb(213,194,192)" d="M 121.195 247.587 C 118.672 245.95 115.611 244.207 113.561 241.999 C 109.268 237.373 107.083 215.131 107.155 208.956 C 107.344 192.566 116.445 177.494 128.005 166.394 C 143.065 151.935 162.974 143.745 183.942 144.347 C 199.972 144.807 213.376 150.121 224.351 161.846 C 225.858 166.79 226.566 172.09 227.517 177.17 C 222.835 172.551 218.718 168.199 212.795 165.092 C 197.659 157.149 181.022 159.336 165.368 164.154 C 150.107 170.73 135.134 180.793 128.833 196.871 C 121.871 214.639 129.464 232.438 134.511 249.659 C 130.086 249.119 125.493 248.784 121.195 247.587 z"/>
<path transform="translate(0,0)" fill="rgb(213,194,192)" d="M 55.4331 104.58 C 61.5948 105.888 65.4959 109.689 68.826 114.916 C 77.1087 127.916 94.3975 200.673 100.763 220.891 C 102.958 227.862 104.634 236.417 108.574 242.549 C 112.034 247.934 116.508 251.15 122.719 252.668 C 125.519 253.353 128.72 254.135 131.594 253.679 C 132.348 253.958 133.006 254.222 133.708 254.609 C 138.669 257.343 141.556 272.072 143.137 277.302 C 132.171 274.527 110.604 271.403 103.642 262.34 C 95.9862 252.374 46.5915 116.009 47.357 110.736 C 49.1151 107.525 52.3245 106.226 55.4331 104.58 z"/>
<path transform="translate(0,0)" fill="rgb(213,194,192)" d="M 229.68 181.326 C 232.299 178.023 236.186 174.088 236.856 169.864 C 236.897 169.605 236.96 169.349 236.987 169.088 C 238.122 158.367 160.035 81.3568 155.563 64.5276 C 154.796 61.6445 155.926 59.5867 157.71 57.4302 C 162.02 54.7694 166.697 54.6046 171.536 55.8286 C 176.305 57.0352 180.498 59.8046 183.841 63.3762 C 191.794 71.8725 205.589 94.6696 213.161 105.232 C 223.968 120.306 237.446 135.062 246.748 151.005 C 251.747 159.573 254.231 168.33 251.505 178.119 C 247.928 190.96 238.414 197.36 230.534 207.075 L 229.362 207.544 C 231.829 198.374 231.76 190.576 229.68 181.326 z"/>
<path transform="translate(0,0)" fill="rgb(251,249,237)" d="M 160.993 170.626 C 176.226 165.318 193.119 160.853 208.55 168.258 C 215.955 171.811 222.701 178.382 225.312 186.29 C 227.983 194.377 226.114 203.021 222.193 210.363 C 214.331 225.085 198.113 237.081 182.292 241.725 C 170.213 245.27 156.417 245.516 145.174 239.215 C 138.513 235.482 136.123 230.138 132.229 223.87 C 130.947 217.556 130.465 211.288 131.64 204.908 C 134.556 189.076 148.617 179.136 160.993 170.626 z"/>
<path transform="translate(0,0)" fill="rgb(251,249,237)" d="M 121.267 66.2449 C 125.97 65.9347 130.624 65.7063 135.319 66.2837 C 141.339 67.0241 147.805 69.2561 152.586 73.0774 C 165.232 83.1847 176.135 100.07 186.459 112.678 C 196.036 124.373 206.195 135.569 215.588 147.413 C 208.093 144.422 200.654 141.633 192.669 140.274 C 170.737 136.544 150.171 143.882 132.435 156.344 C 115.14 169.071 105.426 186.14 102.059 207.176 C 94.7212 184.68 88.1305 161.475 82.5467 138.478 C 78.5259 121.919 74.7794 105.27 84.4356 89.7966 C 92.8569 76.302 106.245 69.6489 121.267 66.2449 z"/>
<path transform="translate(0,0)" fill="rgb(251,249,237)" d="M 731.871 624.423 C 732.433 635.737 731.325 647.291 732.845 658.529 A 11238.2 11238.2 0 0 1 732.859 783.427 C 732.457 785.703 731.988 788.019 731.174 790.189 C 727.64 799.614 721.91 808.605 717.804 817.888 C 712.95 828.862 709.245 841.377 703.679 851.866 C 682.327 823.664 661.619 794.804 640.743 766.235 C 645.959 759.193 657.704 730.599 663.431 720.035 C 682.074 685.654 706.061 653.727 731.871 624.423 z"/>
<path transform="translate(0,0)" fill="rgb(213,194,192)" d="M 567.372 666.515 C 576.052 657.302 591.572 625.872 599.915 613.074 C 635.737 558.127 675.532 505.736 726.426 463.786 C 726.153 471.036 725.073 479.495 726.522 486.573 C 728.225 487.787 729.939 487.9 731.971 488.19 C 733.289 490.225 733.465 642.123 732.845 658.529 C 731.325 647.291 732.433 635.737 731.871 624.423 C 706.061 653.727 682.074 685.654 663.431 720.035 C 657.704 730.599 645.959 759.193 640.743 766.235 L 567.372 666.515 z"/>
<path transform="translate(0,0)" fill="rgb(251,249,237)" d="M 511.939 602.573 C 518.86 607.521 545.714 647.583 552.832 657.315 L 656.196 798.329 C 681.43 832.719 708.118 866.208 732.25 901.396 C 734.187 923.804 732.786 947.157 732.645 969.661 A 682.614 682.614 0 0 0 706.24 971.873 A 2599.88 2599.88 0 0 0 512.402 996.061 A 16446.4 16446.4 0 0 1 512.602 807.569 L 512.507 674.939 C 512.41 650.824 511.649 626.682 511.939 602.573 z"/>
<path transform="translate(0,0)" fill="rgb(251,249,237)" d="M 230.534 207.075 L 232.427 208.416 C 238.64 222.918 264.899 254.235 275.526 269.355 A 17191.1 17191.1 0 0 0 402.329 445.872 C 420.205 470.675 438.842 495.245 455.988 520.54 C 449.879 527.803 443.877 535.07 436.545 541.144 C 430.823 545.883 423.528 550.332 418.46 555.694 C 416.691 557.566 416.587 558.86 416.771 561.23 C 418.052 561.872 418.094 562.078 419.463 561.629 C 425.291 559.716 438.571 546.584 444.34 542.329 A 162.509 162.509 0 0 1 462.326 530.926 C 477.045 548.046 488.344 568.345 502.212 586.188 L 502.028 861.83 C 502.004 907.067 502.62 952.4 501.779 997.625 C 471.213 1002.45 440.841 1008.37 410.31 1013.33 C 397.376 979.845 386.066 945.742 373.7 912.047 A 20714.8 20714.8 0 0 1 257.166 586.2 A 22634.5 22634.5 0 0 1 169.435 335.126 C 158.978 304.475 147.866 273.953 138.125 243.068 C 142.444 241.9 149.976 246.868 154.714 247.879 C 164.124 249.885 174.468 248.932 183.642 246.24 C 204.013 240.261 219.398 225.902 229.362 207.544 L 230.534 207.075 z"/>
<path transform="translate(0,0)" fill="rgb(251,249,237)" d="M 0 458.142 C 76.1068 456.909 151.813 477.988 221.756 506.167 C 235.632 539.885 247.691 578.335 259.455 613.041 C 261.227 618.269 262.204 623.683 264.063 628.858 L 356.36 883.815 C 372.129 927.293 386.705 971.412 403.735 1014.41 C 310.284 1032.97 217.982 1054.4 128.193 1086.7 C 113.84 1091.86 95.8087 1096.51 83.04 1104.69 C 79.6044 1108.98 60.4869 1116.75 54.7514 1119.91 C 37.2827 1129.55 20.1686 1140.5 3.87231 1152 L 0 1152 L 0 458.142 z"/>
<path transform="translate(0,0)" fill="rgb(213,194,192)" d="M 1092.25 962.837 C 1095.05 973.042 1095.13 989.855 1099.92 998.445 L 1099.7 1001.48 C 1095.31 1005.06 1044.85 1008.96 1036.19 1010.14 C 1011.03 1013.58 904.137 1030.24 901.487 1061.41 C 901.092 1066.06 904.284 1070.71 907.325 1073.91 C 945.205 1113.79 1096.17 1122.44 1150.78 1123.21 C 1210.4 1124.05 1381.72 1117.58 1424.31 1075.71 C 1428.33 1071.76 1431.56 1066.66 1431.52 1060.84 C 1431.49 1055.51 1428.51 1050.91 1424.75 1047.34 C 1405.44 1029 1365.35 1020.69 1339.83 1015.69 C 1332.91 1014.33 1325.22 1013.96 1318.53 1012.06 C 1316.45 1011.47 1316.49 1011.49 1315.35 1009.58 L 1315.61 1006.85 A 31.6555 31.6555 0 0 0 1316.31 1005.67 C 1317.86 1002.92 1319.02 1000.36 1318.15 997.218 C 1316.13 990.596 1306.34 980.476 1300.97 975.981 C 1457.38 986.857 1615.88 1006.64 1767.83 1046.07 A 2189.33 2189.33 0 0 1 1901.89 1085.38 C 1920.69 1091.41 1939.27 1098.28 1958.12 1104.07 C 1960.62 1104.84 1962.83 1105.67 1965.45 1104.8 C 1988.16 1114.91 2010.04 1127.85 2031.15 1140.94 C 2036.5 1144.26 2042.66 1147.33 2047.74 1150.98 L 2047.74 1152 L 3.87231 1152 C 20.1686 1140.5 37.2827 1129.55 54.7514 1119.91 C 60.4869 1116.75 79.6044 1108.98 83.04 1104.69 L 85.0301 1106.7 C 87.7662 1107.13 90.1348 1106.14 92.7143 1105.3 C 107.25 1100.58 121.52 1094.71 135.925 1089.57 A 1163.72 1163.72 0 0 1 208.002 1066.29 A 2257.39 2257.39 0 0 1 419.351 1017.24 C 446.562 1012.09 474.254 1008.8 501.34 1003.19 A 2413.96 2413.96 0 0 1 501.62 1065.9 C 474.059 1065.76 441.11 1071.85 417.026 1085.86 C 412.33 1088.59 407.642 1091.55 406.161 1097.07 C 407.235 1099.35 407.778 1099.84 410.283 1100.83 C 417.735 1103.77 426.896 1104.91 434.77 1106.2 C 481.789 1113.89 533.649 1114.25 580.554 1106.04 C 586.681 1104.97 593.716 1104.23 599.413 1101.75 C 602.198 1100.53 603.211 1099.47 604.317 1096.77 C 603.998 1095.4 603.541 1094.17 602.606 1093.08 C 587.332 1075.3 534.559 1068.31 512.169 1065.99 A 2851.94 2851.94 0 0 0 512.122 1001.25 C 536.104 999.538 560.811 994.323 584.659 990.976 C 633.408 984.134 683.485 977.885 732.651 975.527 L 733.138 1019.03 C 722.51 1019.64 711.892 1020.32 701.323 1021.63 C 686.785 1023.44 646.535 1032.57 637.776 1045 C 636.508 1046.8 636.852 1047.37 637.233 1049.39 C 638.759 1050.81 640.219 1051.87 642.192 1052.59 C 651.546 1056.05 663.102 1056.84 672.993 1058.05 C 717.248 1063.44 799.218 1066.41 839.105 1046.67 C 811.814 1025.18 776.205 1022.55 743.14 1018.74 L 743.066 974.077 C 773.586 973.442 804.103 970.193 834.604 968.764 A 3845.88 3845.88 0 0 1 1004.76 965.185 A 4321.82 4321.82 0 0 1 1067 965.949 C 1073.32 966.097 1079.64 967.184 1085.94 967.105 C 1088 967.08 1089.76 966.895 1091.63 965.928 L 1092.25 962.837 z"/>
<path transform="translate(0,0)" fill="rgb(103,56,75)" d="M 1315.61 1006.85 C 1315.85 1006.85 1316.09 1006.83 1316.33 1006.83 C 1324.63 1006.76 1333.62 1009.2 1341.77 1010.89 C 1369.76 1016.7 1407.91 1024.22 1428.99 1044.89 C 1433.46 1049.27 1437.87 1055.53 1437.66 1062.1 C 1437.42 1069.42 1432.73 1075.34 1427.52 1080.07 C 1373.79 1128.72 1175.62 1130.77 1103.1 1126.7 C 1055.08 1124.01 933.795 1112.62 902.284 1076.47 C 898.585 1072.23 895.971 1066.99 896.404 1061.23 C 896.985 1053.52 902.371 1047.02 908.129 1042.33 C 938.549 1017.56 1016.97 1007.12 1056.73 1001.88 C 1069.88 1000.14 1085.79 996.774 1098.97 998.323 L 1099.92 998.445 L 1099.7 1001.48 C 1095.31 1005.06 1044.85 1008.96 1036.19 1010.14 C 1011.03 1013.58 904.137 1030.24 901.487 1061.41 C 901.092 1066.06 904.284 1070.71 907.325 1073.91 C 945.205 1113.79 1096.17 1122.44 1150.78 1123.21 C 1210.4 1124.05 1381.72 1117.58 1424.31 1075.71 C 1428.33 1071.76 1431.56 1066.66 1431.52 1060.84 C 1431.49 1055.51 1428.51 1050.91 1424.75 1047.34 C 1405.44 1029 1365.35 1020.69 1339.83 1015.69 C 1332.91 1014.33 1325.22 1013.96 1318.53 1012.06 C 1316.45 1011.47 1316.49 1011.49 1315.35 1009.58 L 1315.61 1006.85 z"/>
<path transform="translate(0,0)" fill="rgb(213,194,192)" d="M 0 0 L 2046.25 0 C 2047.42 1.85854 2047.77 3.31159 2047.89 5.47856 C 2048.53 17.7544 2048.01 30.3085 2048.01 42.6184 L 2048.02 113.786 L 2048.03 331.839 L 2048.01 431.118 C 2048.01 440.302 2049.59 460.49 2047.57 468.177 C 2047.31 469.178 2046.81 470.109 2046.26 470.98 C 1993.31 470.504 1927.7 485.712 1878.29 503.933 C 1865.75 508.556 1836.04 523.398 1825.84 525.11 C 1826.05 524.84 1826.27 524.575 1826.48 524.3 C 1830.33 519.167 1860.01 425.359 1862.95 414.871 C 1863.46 413.053 1863.67 411.734 1863.34 409.839 C 1865.71 407.2 1866.82 404.457 1866.68 400.908 C 1869.46 397.306 1906.64 284.092 1906.41 280.267 C 1918.99 279.744 1933.8 276.375 1944.94 270.396 C 1949.23 268.093 1953.14 265.468 1955.72 261.249 C 1965.97 244.471 1972.28 219.843 1978.91 201.171 C 1988.71 173.603 1999.47 145.828 2008.02 117.87 C 2009.5 113.014 2010.52 109.204 2007.69 104.537 C 2004.76 99.6979 1998.48 98.4212 1993.43 97.1832 C 1997.86 89.239 1998.88 79.9431 1997.19 71.0692 C 1994.49 56.8826 1985.39 45.1293 1973.47 37.2953 C 1961 29.1015 1944.93 25.2194 1930.2 28.3727 C 1916.73 31.2553 1909.47 38.5576 1902.27 49.5834 C 1900.72 48.7131 1899.15 47.8759 1897.49 47.2114 C 1888.75 43.6972 1882.22 45.4162 1873.81 48.9909 C 1856.93 61.1832 1843.07 92.8686 1827.69 105.78 C 1827.61 105.967 1827.53 106.155 1827.45 106.34 C 1816.44 130.768 1785.71 145.186 1797.62 177.705 C 1803.31 193.235 1807.74 192.496 1819.24 201.081 C 1818.33 206.507 1789.3 245.139 1784.96 248.152 C 1784.36 248.567 1784.36 248.556 1783.81 248.873 C 1783.41 251.297 1782.36 252.672 1780.41 254.168 C 1779.64 254.754 1779.64 254.724 1778.92 255.106 C 1777.83 260.454 1724.44 332.289 1718.94 335.934 C 1718.05 338.733 1717.34 340.422 1714.57 341.894 C 1714.33 342.019 1714.09 342.134 1713.86 342.254 C 1713.82 343.727 1713.72 344.381 1712.9 345.651 C 1703.1 360.876 1690.77 375.127 1679.97 389.718 C 1669.88 403.33 1654.1 428.086 1643.09 438.628 C 1642.42 439.266 1641.78 439.654 1640.93 440.001 C 1640.65 438.883 1640.5 438.62 1639.76 437.757 C 1632.06 428.824 1613.58 419.61 1603.25 412.985 C 1514.65 356.123 1412.53 320.199 1309.32 301.271 C 1292.09 298.111 1274.36 294.163 1256.93 292.65 C 1257.19 291.953 1257.41 291.27 1257.51 290.526 C 1258.39 283.712 1251.09 270.738 1247.07 265.61 C 1231.02 245.119 1199.16 238.354 1174.63 235.565 C 1162.24 234.157 1146.21 235.69 1136.19 243.899 C 1133.65 245.986 1131.92 248.79 1131.7 252.125 C 1131.31 258.015 1135.06 261.367 1138.75 265.348 C 1131.92 272.383 1126.47 281.848 1120.85 289.911 C 1100.69 291.32 1080.51 291.637 1060.38 293.598 A 599.228 599.228 0 0 0 869.651 343.843 C 852.754 351.493 831.873 360.396 817.551 372.276 C 816.969 363.615 815.616 356.967 808.805 351.022 A 24.066 24.066 0 0 0 790.999 345.313 A 27.1758 27.1758 0 0 0 772.472 354.663 A 25.2439 25.2439 0 0 0 766.613 373.155 C 766.85 375.614 767.579 378.095 768.245 380.469 C 749.56 393.126 731.506 406.708 713.237 419.954 C 703.002 427.375 692.067 434.269 682.264 442.218 C 675.895 447.384 671.27 454.452 664.864 459.593 C 657.033 465.879 643.614 472.007 638.94 480.922 L 638.961 483.416 L 640.67 485.017 C 649.802 484.263 671.762 459.427 681.672 458.242 C 683.688 458.001 686.052 457.801 687.91 456.961 C 695.404 453.574 724.246 430.449 731.085 423.607 C 731.684 434.302 726.897 440.246 727.416 448.82 C 727.144 453.483 727.496 459.311 726.426 463.786 C 675.532 505.736 635.737 558.127 599.915 613.074 C 591.572 625.872 576.052 657.302 567.372 666.515 C 565.207 664.015 563.37 661.234 561.464 658.534 A 2722.42 2722.42 0 0 0 511.948 591.511 C 512.086 583.43 509.503 566.328 513.237 559.569 L 517.035 558.609 C 517.544 557.885 517.919 557.409 518.096 556.523 C 519.847 547.779 517.984 518.362 513.411 511.024 C 511.164 507.419 511.718 502.724 511.741 498.59 C 523.763 489.638 535.661 480.268 548.307 472.219 C 551.682 472.873 555.023 473.42 558.472 473.373 C 566.657 473.259 575.022 470.378 580.681 464.294 A 24.5803 24.5803 0 0 0 587.389 446.267 A 23.6419 23.6419 0 0 0 579.635 430.192 A 21.6846 21.6846 0 0 0 563.577 424.647 C 556.327 425.094 547.948 428.864 543.121 434.351 C 537.053 441.247 536.475 449.885 537.078 458.628 C 526.059 466.843 479.707 504.08 471.926 507.394 C 469.002 509.978 465.445 514.008 461.512 514.629 C 458.745 513.755 458.222 512.523 456.512 510.278 C 445.921 493.995 433.742 478.611 422.336 462.884 A 8717.04 8717.04 0 0 0 361.202 378.589 L 237.052 207.109 L 237.525 206.705 C 247.719 197.972 257.787 184.955 258.638 171.034 C 258.989 165.281 257.478 158.614 254.877 153.482 C 248.442 140.788 236.841 128.339 228.368 116.653 C 215.683 99.159 197.932 71.3417 183.943 56.1697 C 179.982 51.8741 174.857 49.7708 169.004 49.684 C 161.63 49.5746 156.363 52.9471 151.206 57.8549 C 147.205 52.5355 143.624 46.8408 139.33 41.7512 C 132.789 33.9997 124.6 31.161 114.631 30.3442 C 101.198 29.2435 86.2369 32.4447 75.7148 41.2253 C 65.118 48.6362 57.8137 59.0005 55.5858 71.8629 C 54.0123 80.9467 54.8949 90.265 58.8935 98.6003 C 53.279 100.51 45.1799 102.551 42.4322 108.377 C 41.2688 110.845 42.3458 114.358 42.9901 116.849 C 49.1064 140.487 59.3826 163.678 67.8042 186.594 C 76.0789 209.111 83.2375 232.585 92.9884 254.516 C 97.7462 265.216 102.627 270.682 113.792 275.027 C 123.488 278.8 134.888 280.928 145.129 282.481 L 186.043 402.784 C 197.875 437.266 210.331 471.553 221.756 506.167 C 151.813 477.988 76.1068 456.909 0 458.142 L 0 0 z"/>
<path transform="translate(0,0)" fill="rgb(251,249,237)" d="M 1866.68 400.908 C 1869.28 401.465 1871.35 402.175 1873.41 403.918 C 1877.6 407.479 1910.79 446.267 1913.98 451.082 C 1915.27 453.031 1915.33 454.804 1914.91 457.031 C 1912.98 459.082 1912.89 459.111 1910.1 459.471 C 1901.42 457.158 1872.68 418.903 1863.34 409.839 C 1865.71 407.2 1866.82 404.457 1866.68 400.908 z"/>
<path transform="translate(0,0)" fill="rgb(251,249,237)" d="M 456.512 510.278 C 467.595 486.728 536.465 416.92 558.199 396.716 C 649.793 311.57 761.902 238.954 880.226 197.346 A 890.305 890.305 0 0 1 1065 154.865 C 1103.96 150.109 1144.44 146.627 1183.71 148.109 C 1300.14 152.505 1406.49 173.563 1514.57 217.782 C 1530.28 224.21 1546.21 230.411 1561.53 237.711 C 1586.35 249.534 1610.4 263.189 1634.32 276.719 C 1652.02 286.728 1705.57 318.658 1718.54 333.107 C 1719.39 334.06 1719.01 334.707 1718.94 335.934 C 1718.05 338.733 1717.34 340.422 1714.57 341.894 C 1714.33 342.019 1714.09 342.134 1713.86 342.254 C 1686.66 319.559 1654.31 300.682 1623.7 283.042 A 907.421 907.421 0 0 0 1093.1 162.436 A 898.512 898.512 0 0 0 487.971 486.197 C 482.924 492.251 474.797 500.319 471.926 507.394 C 469.002 509.978 465.445 514.008 461.512 514.629 C 458.745 513.755 458.222 512.523 456.512 510.278 z"/>
<path transform="translate(0,0)" fill="rgb(251,249,237)" d="M 1778.92 255.106 C 1763.96 245.439 1749.58 234.828 1734.7 225.019 A 849.083 849.083 0 0 0 1654.54 178.088 A 1189.97 1189.97 0 0 0 1330.46 67.0954 C 1039.76 11.0255 761.52 64.3815 522.772 242.533 C 496.162 262.389 470.031 284.265 445.475 306.624 C 438.01 313.421 391.732 360.855 386.93 362.265 C 386.304 362.449 385.597 362.596 384.942 362.619 C 382.592 362.702 381.462 362.248 379.696 360.827 C 379.958 354.782 390.951 345.02 395.249 340.669 C 436.012 299.41 479.991 260.131 526.788 225.837 A 994.328 994.328 0 0 1 1101.43 33.9279 C 1303.69 32.7231 1545.52 92.6964 1716.7 201.696 C 1734.95 213.315 1767.51 229.99 1782.06 244.744 C 1783.65 246.352 1783.85 246.483 1783.81 248.873 C 1783.41 251.297 1782.36 252.672 1780.41 254.168 C 1779.64 254.754 1779.64 254.724 1778.92 255.106 z"/>
<path transform="translate(0,0)" fill="rgb(213,194,192)" d="M 471.926 507.394 C 474.797 500.319 482.924 492.251 487.971 486.197 A 898.512 898.512 0 0 1 1093.1 162.436 A 907.421 907.421 0 0 1 1623.7 283.042 C 1654.31 300.682 1686.66 319.559 1713.86 342.254 C 1713.82 343.727 1713.72 344.381 1712.9 345.651 C 1703.1 360.876 1690.77 375.127 1679.97 389.718 C 1669.88 403.33 1654.1 428.086 1643.09 438.628 C 1642.42 439.266 1641.78 439.654 1640.93 440.001 C 1640.65 438.883 1640.5 438.62 1639.76 437.757 C 1632.06 428.824 1613.58 419.61 1603.25 412.985 C 1514.65 356.123 1412.53 320.199 1309.32 301.271 C 1292.09 298.111 1274.36 294.163 1256.93 292.65 C 1257.19 291.953 1257.41 291.27 1257.51 290.526 C 1258.39 283.712 1251.09 270.738 1247.07 265.61 C 1231.02 245.119 1199.16 238.354 1174.63 235.565 C 1162.24 234.157 1146.21 235.69 1136.19 243.899 C 1133.65 245.986 1131.92 248.79 1131.7 252.125 C 1131.31 258.015 1135.06 261.367 1138.75 265.348 C 1131.92 272.383 1126.47 281.848 1120.85 289.911 C 1100.69 291.32 1080.51 291.637 1060.38 293.598 A 599.228 599.228 0 0 0 869.651 343.843 C 852.754 351.493 831.873 360.396 817.551 372.276 C 816.969 363.615 815.616 356.967 808.805 351.022 A 24.066 24.066 0 0 0 790.999 345.313 A 27.1758 27.1758 0 0 0 772.472 354.663 A 25.2439 25.2439 0 0 0 766.613 373.155 C 766.85 375.614 767.579 378.095 768.245 380.469 C 749.56 393.126 731.506 406.708 713.237 419.954 C 703.002 427.375 692.067 434.269 682.264 442.218 C 675.895 447.384 671.27 454.452 664.864 459.593 C 657.033 465.879 643.614 472.007 638.94 480.922 L 638.961 483.416 L 640.67 485.017 C 649.802 484.263 671.762 459.427 681.672 458.242 C 683.688 458.001 686.052 457.801 687.91 456.961 C 695.404 453.574 724.246 430.449 731.085 423.607 C 731.684 434.302 726.897 440.246 727.416 448.82 C 727.144 453.483 727.496 459.311 726.426 463.786 C 675.532 505.736 635.737 558.127 599.915 613.074 C 591.572 625.872 576.052 657.302 567.372 666.515 C 565.207 664.015 563.37 661.234 561.464 658.534 A 2722.42 2722.42 0 0 0 511.948 591.511 C 512.086 583.43 509.503 566.328 513.237 559.569 L 517.035 558.609 C 517.544 557.885 517.919 557.409 518.096 556.523 C 519.847 547.779 517.984 518.362 513.411 511.024 C 511.164 507.419 511.718 502.724 511.741 498.59 C 523.763 489.638 535.661 480.268 548.307 472.219 C 551.682 472.873 555.023 473.42 558.472 473.373 C 566.657 473.259 575.022 470.378 580.681 464.294 A 24.5803 24.5803 0 0 0 587.389 446.267 A 23.6419 23.6419 0 0 0 579.635 430.192 A 21.6846 21.6846 0 0 0 563.577 424.647 C 556.327 425.094 547.948 428.864 543.121 434.351 C 537.053 441.247 536.475 449.885 537.078 458.628 C 526.059 466.843 479.707 504.08 471.926 507.394 z"/>
<path transform="translate(0,0)" fill="rgb(251,249,237)" d="M 727.416 448.82 C 727.144 453.483 727.496 459.311 726.426 463.786 C 675.532 505.736 635.737 558.127 599.915 613.074 C 591.572 625.872 576.052 657.302 567.372 666.515 C 565.207 664.015 563.37 661.234 561.464 658.534 C 572.458 643.847 579.31 625.579 589.606 610.237 C 603.623 589.352 617.234 567.824 632.58 547.893 C 660.845 511.182 693.12 479.736 727.416 448.82 z"/>
</svg>